%FSLAX34Y34*%
G04 Gerber Fmt 3.4, Leading zero omitted, Abs format*
G04 (created by PCBNEW (2014-02-26 BZR 4721)-product) date Monday, 09 February 2015 12:03:13*
%MOIN*%
G01*
G70*
G90*
G04 APERTURE LIST*
%ADD10C,0.005906*%
%ADD11C,0.011811*%
%ADD12C,0.007874*%
%ADD13C,0.006000*%
%ADD14C,0.012000*%
%ADD15C,0.008000*%
G04 APERTURE END LIST*
G54D10*
G54D11*
X66479Y-50464D02*
X66619Y-50857D01*
X66760Y-50464D01*
X67294Y-50857D02*
X66957Y-50857D01*
X67125Y-50857D02*
X67125Y-50267D01*
X67069Y-50351D01*
X67013Y-50407D01*
X66957Y-50435D01*
X67547Y-50801D02*
X67575Y-50829D01*
X67547Y-50857D01*
X67519Y-50829D01*
X67547Y-50801D01*
X67547Y-50857D01*
X67941Y-50267D02*
X67997Y-50267D01*
X68053Y-50295D01*
X68082Y-50323D01*
X68110Y-50379D01*
X68138Y-50492D01*
X68138Y-50632D01*
X68110Y-50745D01*
X68082Y-50801D01*
X68053Y-50829D01*
X67997Y-50857D01*
X67941Y-50857D01*
X67885Y-50829D01*
X67857Y-50801D01*
X67829Y-50745D01*
X67800Y-50632D01*
X67800Y-50492D01*
X67829Y-50379D01*
X67857Y-50323D01*
X67885Y-50295D01*
X67941Y-50267D01*
X59139Y-50778D02*
X59139Y-50188D01*
X59280Y-50188D01*
X59364Y-50216D01*
X59420Y-50272D01*
X59448Y-50329D01*
X59476Y-50441D01*
X59476Y-50525D01*
X59448Y-50638D01*
X59420Y-50694D01*
X59364Y-50750D01*
X59280Y-50778D01*
X59139Y-50778D01*
X59983Y-50385D02*
X59983Y-50778D01*
X59730Y-50385D02*
X59730Y-50694D01*
X59758Y-50750D01*
X59814Y-50778D01*
X59898Y-50778D01*
X59955Y-50750D01*
X59983Y-50722D01*
X60517Y-50778D02*
X60517Y-50469D01*
X60489Y-50413D01*
X60433Y-50385D01*
X60320Y-50385D01*
X60264Y-50413D01*
X60517Y-50750D02*
X60461Y-50778D01*
X60320Y-50778D01*
X60264Y-50750D01*
X60236Y-50694D01*
X60236Y-50638D01*
X60264Y-50582D01*
X60320Y-50553D01*
X60461Y-50553D01*
X60517Y-50525D01*
X60883Y-50778D02*
X60826Y-50750D01*
X60798Y-50694D01*
X60798Y-50188D01*
X61839Y-50778D02*
X61557Y-50778D01*
X61557Y-50188D01*
X62035Y-50469D02*
X62232Y-50469D01*
X62317Y-50778D02*
X62035Y-50778D01*
X62035Y-50188D01*
X62317Y-50188D01*
X62570Y-50778D02*
X62570Y-50188D01*
X62710Y-50188D01*
X62795Y-50216D01*
X62851Y-50272D01*
X62879Y-50329D01*
X62907Y-50441D01*
X62907Y-50525D01*
X62879Y-50638D01*
X62851Y-50694D01*
X62795Y-50750D01*
X62710Y-50778D01*
X62570Y-50778D01*
X63892Y-50778D02*
X63610Y-50778D01*
X63610Y-50188D01*
X64341Y-50778D02*
X64341Y-50469D01*
X64313Y-50413D01*
X64257Y-50385D01*
X64145Y-50385D01*
X64088Y-50413D01*
X64341Y-50750D02*
X64285Y-50778D01*
X64145Y-50778D01*
X64088Y-50750D01*
X64060Y-50694D01*
X64060Y-50638D01*
X64088Y-50582D01*
X64145Y-50553D01*
X64285Y-50553D01*
X64341Y-50525D01*
X64623Y-50778D02*
X64623Y-50385D01*
X64623Y-50441D02*
X64651Y-50413D01*
X64707Y-50385D01*
X64791Y-50385D01*
X64848Y-50413D01*
X64876Y-50469D01*
X64876Y-50778D01*
X64876Y-50469D02*
X64904Y-50413D01*
X64960Y-50385D01*
X65044Y-50385D01*
X65101Y-50413D01*
X65129Y-50469D01*
X65129Y-50778D01*
X65410Y-50385D02*
X65410Y-50975D01*
X65410Y-50413D02*
X65466Y-50385D01*
X65579Y-50385D01*
X65635Y-50413D01*
X65663Y-50441D01*
X65691Y-50497D01*
X65691Y-50666D01*
X65663Y-50722D01*
X65635Y-50750D01*
X65579Y-50778D01*
X65466Y-50778D01*
X65410Y-50750D01*
X56749Y-51723D02*
X56749Y-51133D01*
X56889Y-51133D01*
X56974Y-51161D01*
X57030Y-51217D01*
X57058Y-51273D01*
X57086Y-51386D01*
X57086Y-51470D01*
X57058Y-51583D01*
X57030Y-51639D01*
X56974Y-51695D01*
X56889Y-51723D01*
X56749Y-51723D01*
X57339Y-51667D02*
X57367Y-51695D01*
X57339Y-51723D01*
X57311Y-51695D01*
X57339Y-51667D01*
X57339Y-51723D01*
X58464Y-51780D02*
X58408Y-51751D01*
X58352Y-51695D01*
X58267Y-51611D01*
X58211Y-51583D01*
X58155Y-51583D01*
X58183Y-51723D02*
X58127Y-51695D01*
X58070Y-51639D01*
X58042Y-51526D01*
X58042Y-51330D01*
X58070Y-51217D01*
X58127Y-51161D01*
X58183Y-51133D01*
X58295Y-51133D01*
X58352Y-51161D01*
X58408Y-51217D01*
X58436Y-51330D01*
X58436Y-51526D01*
X58408Y-51639D01*
X58352Y-51695D01*
X58295Y-51723D01*
X58183Y-51723D01*
X58689Y-51667D02*
X58717Y-51695D01*
X58689Y-51723D01*
X58661Y-51695D01*
X58689Y-51667D01*
X58689Y-51723D01*
X59420Y-51723D02*
X59420Y-51133D01*
X59617Y-51555D01*
X59814Y-51133D01*
X59814Y-51723D01*
X60348Y-51695D02*
X60292Y-51723D01*
X60179Y-51723D01*
X60123Y-51695D01*
X60095Y-51667D01*
X60067Y-51611D01*
X60067Y-51442D01*
X60095Y-51386D01*
X60123Y-51358D01*
X60179Y-51330D01*
X60292Y-51330D01*
X60348Y-51358D01*
X60601Y-51723D02*
X60601Y-51133D01*
X60742Y-51133D01*
X60826Y-51161D01*
X60883Y-51217D01*
X60911Y-51273D01*
X60939Y-51386D01*
X60939Y-51470D01*
X60911Y-51583D01*
X60883Y-51639D01*
X60826Y-51695D01*
X60742Y-51723D01*
X60601Y-51723D01*
X61276Y-51723D02*
X61220Y-51695D01*
X61192Y-51667D01*
X61164Y-51611D01*
X61164Y-51442D01*
X61192Y-51386D01*
X61220Y-51358D01*
X61276Y-51330D01*
X61361Y-51330D01*
X61417Y-51358D01*
X61445Y-51386D01*
X61473Y-51442D01*
X61473Y-51611D01*
X61445Y-51667D01*
X61417Y-51695D01*
X61361Y-51723D01*
X61276Y-51723D01*
X61726Y-51330D02*
X61726Y-51723D01*
X61726Y-51386D02*
X61754Y-51358D01*
X61811Y-51330D01*
X61895Y-51330D01*
X61951Y-51358D01*
X61979Y-51414D01*
X61979Y-51723D01*
X62514Y-51723D02*
X62514Y-51414D01*
X62485Y-51358D01*
X62429Y-51330D01*
X62317Y-51330D01*
X62260Y-51358D01*
X62514Y-51695D02*
X62457Y-51723D01*
X62317Y-51723D01*
X62260Y-51695D01*
X62232Y-51639D01*
X62232Y-51583D01*
X62260Y-51526D01*
X62317Y-51498D01*
X62457Y-51498D01*
X62514Y-51470D01*
X62879Y-51723D02*
X62823Y-51695D01*
X62795Y-51639D01*
X62795Y-51133D01*
X63357Y-51723D02*
X63357Y-51133D01*
X63357Y-51695D02*
X63301Y-51723D01*
X63188Y-51723D01*
X63132Y-51695D01*
X63104Y-51667D01*
X63076Y-51611D01*
X63076Y-51442D01*
X63104Y-51386D01*
X63132Y-51358D01*
X63188Y-51330D01*
X63301Y-51330D01*
X63357Y-51358D01*
X64285Y-51414D02*
X64088Y-51414D01*
X64088Y-51723D02*
X64088Y-51133D01*
X64370Y-51133D01*
X64820Y-51695D02*
X64763Y-51723D01*
X64651Y-51723D01*
X64595Y-51695D01*
X64566Y-51639D01*
X64566Y-51414D01*
X64595Y-51358D01*
X64651Y-51330D01*
X64763Y-51330D01*
X64820Y-51358D01*
X64848Y-51414D01*
X64848Y-51470D01*
X64566Y-51526D01*
X65101Y-51723D02*
X65101Y-51133D01*
X65101Y-51358D02*
X65157Y-51330D01*
X65269Y-51330D01*
X65326Y-51358D01*
X65354Y-51386D01*
X65382Y-51442D01*
X65382Y-51611D01*
X65354Y-51667D01*
X65326Y-51695D01*
X65269Y-51723D01*
X65157Y-51723D01*
X65101Y-51695D01*
X66057Y-51189D02*
X66085Y-51161D01*
X66141Y-51133D01*
X66282Y-51133D01*
X66338Y-51161D01*
X66366Y-51189D01*
X66394Y-51245D01*
X66394Y-51302D01*
X66366Y-51386D01*
X66029Y-51723D01*
X66394Y-51723D01*
X66760Y-51133D02*
X66816Y-51133D01*
X66872Y-51161D01*
X66901Y-51189D01*
X66929Y-51245D01*
X66957Y-51358D01*
X66957Y-51498D01*
X66929Y-51611D01*
X66901Y-51667D01*
X66872Y-51695D01*
X66816Y-51723D01*
X66760Y-51723D01*
X66704Y-51695D01*
X66676Y-51667D01*
X66647Y-51611D01*
X66619Y-51498D01*
X66619Y-51358D01*
X66647Y-51245D01*
X66676Y-51189D01*
X66704Y-51161D01*
X66760Y-51133D01*
X67519Y-51723D02*
X67182Y-51723D01*
X67350Y-51723D02*
X67350Y-51133D01*
X67294Y-51217D01*
X67238Y-51273D01*
X67182Y-51302D01*
X68053Y-51133D02*
X67772Y-51133D01*
X67744Y-51414D01*
X67772Y-51386D01*
X67829Y-51358D01*
X67969Y-51358D01*
X68025Y-51386D01*
X68053Y-51414D01*
X68082Y-51470D01*
X68082Y-51611D01*
X68053Y-51667D01*
X68025Y-51695D01*
X67969Y-51723D01*
X67829Y-51723D01*
X67772Y-51695D01*
X67744Y-51667D01*
X69881Y-49086D02*
X69994Y-49086D01*
X70050Y-49114D01*
X70106Y-49170D01*
X70134Y-49282D01*
X70134Y-49479D01*
X70106Y-49592D01*
X70050Y-49648D01*
X69994Y-49676D01*
X69881Y-49676D01*
X69825Y-49648D01*
X69769Y-49592D01*
X69741Y-49479D01*
X69741Y-49282D01*
X69769Y-49170D01*
X69825Y-49114D01*
X69881Y-49086D01*
X70388Y-49086D02*
X70388Y-49564D01*
X70416Y-49620D01*
X70444Y-49648D01*
X70500Y-49676D01*
X70613Y-49676D01*
X70669Y-49648D01*
X70697Y-49620D01*
X70725Y-49564D01*
X70725Y-49086D01*
X70922Y-49086D02*
X71259Y-49086D01*
X71091Y-49676D02*
X71091Y-49086D01*
X53824Y-49676D02*
X53824Y-49086D01*
X54105Y-49676D02*
X54105Y-49086D01*
X54443Y-49676D01*
X54443Y-49086D01*
X70247Y-43939D02*
X70697Y-43939D01*
X70472Y-44164D02*
X70472Y-43714D01*
X53908Y-44136D02*
X54358Y-44136D01*
X54133Y-44361D02*
X54133Y-43911D01*
G54D12*
X68110Y-46259D02*
G75*
G03X68110Y-46259I-5905J0D01*
G74*
G01*
G54D10*
X60543Y-47996D02*
X60543Y-47665D01*
X60543Y-47665D02*
X59925Y-47665D01*
X59925Y-47665D02*
X59925Y-48003D01*
X62196Y-46062D02*
G75*
G03X62196Y-46062I-1968J0D01*
G74*
G01*
X64677Y-47996D02*
X64677Y-47665D01*
X64677Y-47665D02*
X64059Y-47665D01*
X64059Y-47665D02*
X64059Y-48003D01*
X66330Y-46062D02*
G75*
G03X66330Y-46062I-1968J0D01*
G74*
G01*
G54D13*
X54633Y-47759D02*
X53633Y-47759D01*
X53633Y-47759D02*
X53633Y-44759D01*
X53633Y-44759D02*
X54633Y-44759D01*
X54633Y-44759D02*
X54633Y-47759D01*
X53633Y-46759D02*
X54633Y-46759D01*
X70972Y-47759D02*
X69972Y-47759D01*
X69972Y-47759D02*
X69972Y-44759D01*
X69972Y-44759D02*
X70972Y-44759D01*
X70972Y-44759D02*
X70972Y-47759D01*
X69972Y-46759D02*
X70972Y-46759D01*
G54D14*
X64401Y-43307D02*
X64001Y-43307D01*
X64001Y-43307D02*
X64001Y-43707D01*
X64001Y-43707D02*
X60801Y-43707D01*
X60801Y-43707D02*
X60801Y-42907D01*
X60801Y-42907D02*
X64001Y-42907D01*
X64001Y-42907D02*
X64001Y-43307D01*
X64001Y-43507D02*
X63801Y-43707D01*
X60401Y-43307D02*
X60801Y-43307D01*
X62795Y-46616D02*
X62195Y-46616D01*
X62195Y-46473D01*
X62223Y-46387D01*
X62280Y-46330D01*
X62337Y-46301D01*
X62452Y-46273D01*
X62537Y-46273D01*
X62652Y-46301D01*
X62709Y-46330D01*
X62766Y-46387D01*
X62795Y-46473D01*
X62795Y-46616D01*
X62795Y-45701D02*
X62795Y-46044D01*
X62795Y-45873D02*
X62195Y-45873D01*
X62280Y-45930D01*
X62337Y-45987D01*
X62366Y-46044D01*
X66928Y-46616D02*
X66328Y-46616D01*
X66328Y-46473D01*
X66357Y-46387D01*
X66414Y-46330D01*
X66471Y-46301D01*
X66586Y-46273D01*
X66671Y-46273D01*
X66786Y-46301D01*
X66843Y-46330D01*
X66900Y-46387D01*
X66928Y-46473D01*
X66928Y-46616D01*
X66386Y-46044D02*
X66357Y-46016D01*
X66328Y-45958D01*
X66328Y-45816D01*
X66357Y-45758D01*
X66386Y-45730D01*
X66443Y-45701D01*
X66500Y-45701D01*
X66586Y-45730D01*
X66928Y-46073D01*
X66928Y-45701D01*
G54D13*
X53464Y-46455D02*
X53064Y-46455D01*
X53464Y-46226D02*
X53236Y-46397D01*
X53064Y-46226D02*
X53293Y-46455D01*
X53464Y-45845D02*
X53464Y-46074D01*
X53464Y-45959D02*
X53064Y-45959D01*
X53121Y-45997D01*
X53160Y-46036D01*
X53179Y-46074D01*
X69803Y-46455D02*
X69403Y-46455D01*
X69803Y-46226D02*
X69574Y-46397D01*
X69403Y-46226D02*
X69631Y-46455D01*
X69441Y-46074D02*
X69422Y-46055D01*
X69403Y-46016D01*
X69403Y-45921D01*
X69422Y-45883D01*
X69441Y-45864D01*
X69479Y-45845D01*
X69517Y-45845D01*
X69574Y-45864D01*
X69803Y-46093D01*
X69803Y-45845D01*
G54D15*
X62318Y-43555D02*
X62151Y-43293D01*
X62032Y-43555D02*
X62032Y-43005D01*
X62223Y-43005D01*
X62270Y-43032D01*
X62294Y-43058D01*
X62318Y-43110D01*
X62318Y-43189D01*
X62294Y-43241D01*
X62270Y-43267D01*
X62223Y-43293D01*
X62032Y-43293D01*
X62794Y-43555D02*
X62508Y-43555D01*
X62651Y-43555D02*
X62651Y-43005D01*
X62603Y-43084D01*
X62556Y-43136D01*
X62508Y-43163D01*
G54D10*
M02*
